{
  "accessors": [
    {
      "bufferView": 1,
      "componentType": 5126,
      "count": 65532,
      "max": [
        0.0,
        0.987280011177063,
        0.9978799819946289
      ],
      "min": [
        -0.8208900094032288,
        -0.0,
        -0.9978799819946289
      ],
      "type": "VEC3"
    },
    {
      "bufferView": 1,
      "byteOffset": 786384,
      "componentType": 5126,
      "count": 65532,
      "max": [
        0.022809943184256554,
        0.9999623894691467,
        0.9974258542060852
      ],
      "min": [
        -0.8280224204063416,
        0.04548981040716171,
        -0.9974258542060852
      ],
      "type": "VEC3"
    },
    {
      "bufferView": 0,
      "componentType": 5125,
      "count": 98298,
      "type": "SCALAR"
    },
    {
      "bufferView": 1,
      "byteOffset": 1572768,
      "componentType": 5126,
      "count": 65532,
      "max": [
        -0.0,
        0.6981099843978882,
        0.9978799819946289
      ],
      "min": [
        -0.987280011177063,
        -0.1926099956035614,
        -0.9978799819946289
      ],
      "type": "VEC3"
    },
    {
      "bufferView": 1,
      "byteOffset": 2359152,
      "componentType": 5126,
      "count": 65532,
      "max": [
        -0.055429767817258835,
        0.7027301788330078,
        0.9974258542060852
      ],
      "min": [
        -0.9999623894691467,
        -0.18904007971286774,
        -0.9974258542060852
      ],
      "type": "VEC3"
    },
    {
      "bufferView": 0,
      "byteOffset": 393192,
      "componentType": 5125,
      "count": 98298,
      "type": "SCALAR"
    },
    {
      "bufferView": 1,
      "byteOffset": 3145536,
      "componentType": 5126,
      "count": 65532,
      "max": [
        0.0,
        -0.0,
        0.9978799819946289
      ],
      "min": [
        -0.987280011177063,
        -0.7584099769592285,
        -0.9978799819946289
      ],
      "type": "VEC3"
    },
    {
      "bufferView": 1,
      "byteOffset": 3931920,
      "componentType": 5126,
      "count": 65532,
      "max": [
        -0.055429767817258835,
        0.022809943184256554,
        0.9974258542060852
      ],
      "min": [
        -0.9999623894691467,
        -0.7637745141983032,
        -0.9974258542060852
      ],
      "type": "VEC3"
    },
    {
      "bufferView": 0,
      "byteOffset": 786384,
      "componentType": 5125,
      "count": 98298,
      "type": "SCALAR"
    },
    {
      "bufferView": 1,
      "byteOffset": 4718304,
      "componentType": 5126,
      "count": 65532,
      "max": [
        0.987280011177063,
        0.1926099956035614,
        0.9978799819946289
      ],
      "min": [
        -0.6981099843978882,
        -0.987280011177063,
        -0.9978799819946289
      ],
      "type": "VEC3"
    },
    {
      "bufferView": 1,
      "byteOffset": 5504688,
      "componentType": 5126,
      "count": 65532,
      "max": [
        0.9999623894691467,
        0.18904973566532135,
        0.9974258542060852
      ],
      "min": [
        -0.7027301788330078,
        -0.9999623894691467,
        -0.9974258542060852
      ],
      "type": "VEC3"
    },
    {
      "bufferView": 0,
      "byteOffset": 1179576,
      "componentType": 5125,
      "count": 98298,
      "type": "SCALAR"
    },
    {
      "bufferView": 1,
      "byteOffset": 6291072,
      "componentType": 5126,
      "count": 65532,
      "max": [
        0.9683099985122681,
        0.9683099985122681,
        0.9978799819946289
      ],
      "min": [
        0.0,
        -0.0,
        -0.9978799819946289
      ],
      "type": "VEC3"
    },
    {
      "bufferView": 1,
      "byteOffset": 7077456,
      "componentType": 5126,
      "count": 65532,
      "max": [
        0.9795476794242859,
        0.9795476794242859,
        0.9974258542060852
      ],
      "min": [
        0.0047699823044240475,
        0.0034699835814535618,
        -0.9974258542060852
      ],
      "type": "VEC3"
    },
    {
      "bufferView": 0,
      "byteOffset": 1572768,
      "componentType": 5125,
      "count": 98298,
      "type": "SCALAR"
    },
    {
      "bufferView": 1,
      "byteOffset": 7863840,
      "componentType": 5126,
      "count": 65532,
      "max": [
        0.987280011177063,
        0.987280011177063,
        0.9978799819946289
      ],
      "min": [
        0.0,
        -0.1926099956035614,
        -0.9978799819946289
      ],
      "type": "VEC3"
    },
    {
      "bufferView": 1,
      "byteOffset": 8650224,
      "componentType": 5126,
      "count": 65532,
      "max": [
        0.9999623894691467,
        0.9999623894691467,
        0.9974258542060852
      ],
      "min": [
        -0.022819936275482178,
        -0.18904007971286774,
        -0.9974258542060852
      ],
      "type": "VEC3"
    },
    {
      "bufferView": 0,
      "byteOffset": 1965960,
      "componentType": 5125,
      "count": 98298,
      "type": "SCALAR"
    },
    {
      "bufferView": 1,
      "byteOffset": 9436608,
      "componentType": 5126,
      "count": 65532,
      "max": [
        0.9683099985122681,
        -0.0,
        0.9978799819946289
      ],
      "min": [
        -0.0,
        -0.8208900094032288,
        -0.9978799819946289
      ],
      "type": "VEC3"
    },
    {
      "bufferView": 1,
      "byteOffset": 10222992,
      "componentType": 5126,
      "count": 65532,
      "max": [
        0.9798017144203186,
        -0.0023999963887035847,
        0.9974258542060852
      ],
      "min": [
        0.04548981040716171,
        -0.8280178308486938,
        -0.9974258542060852
      ],
      "type": "VEC3"
    },
    {
      "bufferView": 0,
      "byteOffset": 2359152,
      "componentType": 5125,
      "count": 98298,
      "type": "SCALAR"
    },
    {
      "bufferView": 1,
      "byteOffset": 11009376,
      "componentType": 5126,
      "count": 49180,
      "max": [
        0.6981099843978882,
        -0.0,
        0.9978799819946289
      ],
      "min": [
        -0.0,
        -0.987280011177063,
        -0.9978799819946289
      ],
      "type": "VEC3"
    },
    {
      "bufferView": 1,
      "byteOffset": 11599536,
      "componentType": 5126,
      "count": 49180,
      "max": [
        0.7027301788330078,
        -0.055429767817258835,
        0.9974258542060852
      ],
      "min": [
        -0.022809943184256554,
        -0.9999623894691467,
        -0.9974258542060852
      ],
      "type": "VEC3"
    },
    {
      "bufferView": 0,
      "byteOffset": 2752344,
      "componentType": 5125,
      "count": 73770,
      "type": "SCALAR"
    },
    {
      "bufferView": 1,
      "byteOffset": 12189696,
      "componentType": 5126,
      "count": 13068,
      "max": [
        0.9940000176429749,
        16.62019920349121,
        2.8542399406433105
      ],
      "min": [
        -0.9940000176429749,
        -0.9996200203895569,
        -29.402009963989258
      ],
      "type": "VEC3"
    },
    {
      "bufferView": 1,
      "byteOffset": 12346512,
      "componentType": 5126,
      "count": 13068,
      "max": [
        0.9999123811721802,
        0.9996969103813171,
        0.9794925451278687
      ],
      "min": [
        -0.9999169111251831,
        -0.9996969103813171,
        -0.846741795539856
      ],
      "type": "VEC3"
    },
    {
      "bufferView": 0,
      "byteOffset": 3047424,
      "componentType": 5125,
      "count": 19968,
      "type": "SCALAR"
    },
    {
      "bufferView": 1,
      "byteOffset": 12503328,
      "componentType": 5126,
      "count": 608,
      "max": [
        1.1241899728775024,
        2.928420066833496,
        0.13409000635147095
      ],
      "min": [
        -0.9488000273704529,
        1.0980700254440308,
        -1.1722500324249268
      ],
      "type": "VEC3"
    },
    {
      "bufferView": 1,
      "byteOffset": 12510624,
      "componentType": 5126,
      "count": 608,
      "max": [
        0.9998700022697449,
        1.0,
        0.9973168969154358
      ],
      "min": [
        -0.9999609589576721,
        -1.0,
        -0.9978128671646118
      ],
      "type": "VEC3"
    },
    {
      "bufferView": 0,
      "byteOffset": 3127296,
      "componentType": 5125,
      "count": 1704,
      "type": "SCALAR"
    },
    {
      "bufferView": 1,
      "byteOffset": 12517920,
      "componentType": 5126,
      "count": 608,
      "max": [
        1.1241899728775024,
        2.928420066833496,
        0.13409000635147095
      ],
      "min": [
        -0.9488000273704529,
        1.0980700254440308,
        -1.1722500324249268
      ],
      "type": "VEC3"
    },
    {
      "bufferView": 1,
      "byteOffset": 12525216,
      "componentType": 5126,
      "count": 608,
      "max": [
        0.9998700022697449,
        1.0,
        0.9973168969154358
      ],
      "min": [
        -0.9999609589576721,
        -1.0,
        -0.9978128671646118
      ],
      "type": "VEC3"
    },
    {
      "bufferView": 0,
      "byteOffset": 3134112,
      "componentType": 5125,
      "count": 1704,
      "type": "SCALAR"
    },
    {
      "bufferView": 1,
      "byteOffset": 12532512,
      "componentType": 5126,
      "count": 3202,
      "max": [
        0.995199978351593,
        16.74740982055664,
        2.8667800426483154
      ],
      "min": [
        -0.995199978351593,
        -1.0041899681091309,
        -29.615379333496094
      ],
      "type": "VEC3"
    },
    {
      "bufferView": 1,
      "byteOffset": 12570936,
      "componentType": 5126,
      "count": 3202,
      "max": [
        0.9987894296646118,
        0.99878990650177,
        0.9709848761558533
      ],
      "min": [
        -0.9987894296646118,
        -0.9987894296646118,
        -0.8539103269577026
      ],
      "type": "VEC3"
    },
    {
      "bufferView": 0,
      "byteOffset": 3140928,
      "componentType": 5125,
      "count": 4992,
      "type": "SCALAR"
    },
    {
      "bufferView": 1,
      "byteOffset": 12609360,
      "componentType": 5126,
      "count": 3202,
      "max": [
        0.995199978351593,
        16.74740982055664,
        2.8667800426483154
      ],
      "min": [
        -0.995199978351593,
        -1.0041899681091309,
        -29.615379333496094
      ],
      "type": "VEC3"
    },
    {
      "bufferView": 1,
      "byteOffset": 12647784,
      "componentType": 5126,
      "count": 3202,
      "max": [
        0.9987894296646118,
        0.99878990650177,
        0.9709848761558533
      ],
      "min": [
        -0.9987894296646118,
        -0.9987894296646118,
        -0.8539103269577026
      ],
      "type": "VEC3"
    },
    {
      "bufferView": 0,
      "byteOffset": 3160896,
      "componentType": 5125,
      "count": 4992,
      "type": "SCALAR"
    },
    {
      "bufferView": 1,
      "byteOffset": 12686208,
      "componentType": 5126,
      "count": 608,
      "max": [
        1.1241899728775024,
        2.928420066833496,
        0.13409000635147095
      ],
      "min": [
        -0.9488000273704529,
        1.0980700254440308,
        -1.1722500324249268
      ],
      "type": "VEC3"
    },
    {
      "bufferView": 1,
      "byteOffset": 12693504,
      "componentType": 5126,
      "count": 608,
      "max": [
        0.9998700022697449,
        1.0,
        0.9973168969154358
      ],
      "min": [
        -0.9999609589576721,
        -1.0,
        -0.9978128671646118
      ],
      "type": "VEC3"
    },
    {
      "bufferView": 0,
      "byteOffset": 3180864,
      "componentType": 5125,
      "count": 1704,
      "type": "SCALAR"
    },
    {
      "bufferView": 1,
      "byteOffset": 12700800,
      "componentType": 5126,
      "count": 608,
      "max": [
        1.1241899728775024,
        2.928420066833496,
        0.13409000635147095
      ],
      "min": [
        -0.9488000273704529,
        1.0980700254440308,
        -1.1722500324249268
      ],
      "type": "VEC3"
    },
    {
      "bufferView": 1,
      "byteOffset": 12708096,
      "componentType": 5126,
      "count": 608,
      "max": [
        0.9998700022697449,
        1.0,
        0.9973168969154358
      ],
      "min": [
        -0.9999609589576721,
        -1.0,
        -0.9978128671646118
      ],
      "type": "VEC3"
    },
    {
      "bufferView": 0,
      "byteOffset": 3187680,
      "componentType": 5125,
      "count": 1704,
      "type": "SCALAR"
    },
    {
      "bufferView": 1,
      "byteOffset": 12715392,
      "componentType": 5126,
      "count": 3202,
      "max": [
        0.995199978351593,
        16.74740982055664,
        2.8667800426483154
      ],
      "min": [
        -0.995199978351593,
        -1.0041899681091309,
        -29.615379333496094
      ],
      "type": "VEC3"
    },
    {
      "bufferView": 1,
      "byteOffset": 12753816,
      "componentType": 5126,
      "count": 3202,
      "max": [
        0.9987894296646118,
        0.99878990650177,
        0.9709848761558533
      ],
      "min": [
        -0.9987894296646118,
        -0.9987894296646118,
        -0.8539103269577026
      ],
      "type": "VEC3"
    },
    {
      "bufferView": 0,
      "byteOffset": 3194496,
      "componentType": 5125,
      "count": 4992,
      "type": "SCALAR"
    }
  ],
  "asset": {
    "extras": {
      "author": "borkia (https://sketchfab.com/borkia)",
      "license": "CC-BY-SA-4.0 (http://creativecommons.org/licenses/by-sa/4.0/)",
      "source": "https://sketchfab.com/3d-models/sputnik-1-885a1c9175df417ea84c6b94277ae208",
      "title": "Sputnik 1"
    },
    "generator": "Sketchfab-12.67.0",
    "version": "2.0"
  },
  "bufferViews": [
    {
      "buffer": 0,
      "byteLength": 3214464,
      "name": "floatBufferViews",
      "target": 34963
    },
    {
      "buffer": 0,
      "byteLength": 12792240,
      "byteOffset": 3214464,
      "byteStride": 12,
      "name": "floatBufferViews",
      "target": 34962
    }
  ],
  "buffers": [
    {
      "byteLength": 16006704,
      "uri": "scene.bin"
    }
  ],
  "extensionsRequired": [
    "KHR_materials_pbrSpecularGlossiness"
  ],
  "extensionsUsed": [
    "KHR_materials_pbrSpecularGlossiness"
  ],
  "materials": [
    {
      "doubleSided": true,
      "extensions": {
        "KHR_materials_pbrSpecularGlossiness": {
          "diffuseFactor": [
            1.0,
            1.0,
            1.0,
            1.0
          ],
          "glossinessFactor": 0.8500000238418579,
          "specularFactor": [
            0.3263755440711975,
            0.3263755440711975,
            0.3263755440711975
          ]
        }
      },
      "name": "Metal"
    }
  ],
  "meshes": [
    {
      "name": "Sputnik_body_0",
      "primitives": [
        {
          "attributes": {
            "NORMAL": 1,
            "POSITION": 0
          },
          "indices": 2,
          "material": 0,
          "mode": 4
        }
      ]
    },
    {
      "name": "Sputnik_body_0",
      "primitives": [
        {
          "attributes": {
            "NORMAL": 4,
            "POSITION": 3
          },
          "indices": 5,
          "material": 0,
          "mode": 4
        }
      ]
    },
    {
      "name": "Sputnik_body_0",
      "primitives": [
        {
          "attributes": {
            "NORMAL": 7,
            "POSITION": 6
          },
          "indices": 8,
          "material": 0,
          "mode": 4
        }
      ]
    },
    {
      "name": "Sputnik_body_0",
      "primitives": [
        {
          "attributes": {
            "NORMAL": 10,
            "POSITION": 9
          },
          "indices": 11,
          "material": 0,
          "mode": 4
        }
      ]
    },
    {
      "name": "Sputnik_body_0",
      "primitives": [
        {
          "attributes": {
            "NORMAL": 13,
            "POSITION": 12
          },
          "indices": 14,
          "material": 0,
          "mode": 4
        }
      ]
    },
    {
      "name": "Sputnik_body_0",
      "primitives": [
        {
          "attributes": {
            "NORMAL": 16,
            "POSITION": 15
          },
          "indices": 17,
          "material": 0,
          "mode": 4
        }
      ]
    },
    {
      "name": "Sputnik_body_0",
      "primitives": [
        {
          "attributes": {
            "NORMAL": 19,
            "POSITION": 18
          },
          "indices": 20,
          "material": 0,
          "mode": 4
        }
      ]
    },
    {
      "name": "Sputnik_body_0",
      "primitives": [
        {
          "attributes": {
            "NORMAL": 22,
            "POSITION": 21
          },
          "indices": 23,
          "material": 0,
          "mode": 4
        }
      ]
    },
    {
      "name": "antene_0",
      "primitives": [
        {
          "attributes": {
            "NORMAL": 25,
            "POSITION": 24
          },
          "indices": 26,
          "material": 0,
          "mode": 4
        }
      ]
    },
    {
      "name": "antene_cover_0",
      "primitives": [
        {
          "attributes": {
            "NORMAL": 28,
            "POSITION": 27
          },
          "indices": 29,
          "material": 0,
          "mode": 4
        }
      ]
    },
    {
      "name": "antene_cover.001_0",
      "primitives": [
        {
          "attributes": {
            "NORMAL": 31,
            "POSITION": 30
          },
          "indices": 32,
          "material": 0,
          "mode": 4
        }
      ]
    },
    {
      "name": "antene.001_0",
      "primitives": [
        {
          "attributes": {
            "NORMAL": 34,
            "POSITION": 33
          },
          "indices": 35,
          "material": 0,
          "mode": 4
        }
      ]
    },
    {
      "name": "antene.002_0",
      "primitives": [
        {
          "attributes": {
            "NORMAL": 37,
            "POSITION": 36
          },
          "indices": 38,
          "material": 0,
          "mode": 4
        }
      ]
    },
    {
      "name": "antene_cover.002_0",
      "primitives": [
        {
          "attributes": {
            "NORMAL": 40,
            "POSITION": 39
          },
          "indices": 41,
          "material": 0,
          "mode": 4
        }
      ]
    },
    {
      "name": "antene_cover.003_0",
      "primitives": [
        {
          "attributes": {
            "NORMAL": 43,
            "POSITION": 42
          },
          "indices": 44,
          "material": 0,
          "mode": 4
        }
      ]
    },
    {
      "name": "antene.003_0",
      "primitives": [
        {
          "attributes": {
            "NORMAL": 46,
            "POSITION": 45
          },
          "indices": 47,
          "material": 0,
          "mode": 4
        }
      ]
    }
  ],
  "nodes": [
    {
      "children": [
        1
      ],
      "matrix": [
        1.0,
        0.0,
        0.0,
        0.0,
        0.0,
        2.220446049250313e-16,
        -1.0,
        0.0,
        0.0,
        1.0,
        2.220446049250313e-16,
        0.0,
        0.0,
        0.0,
        0.0,
        1.0
      ],
      "name": "Sketchfab_model"
    },
    {
      "children": [
        2,
        11,
        13,
        15,
        17,
        19,
        21,
        23,
        25,
        27
      ],
      "name": "Root"
    },
    {
      "children": [
        3,
        4,
        5,
        6,
        7,
        8,
        9,
        10
      ],
      "name": "Sputnik_body"
    },
    {
      "mesh": 0,
      "name": "Sputnik_body_0"
    },
    {
      "mesh": 1,
      "name": "Sputnik_body_0"
    },
    {
      "mesh": 2,
      "name": "Sputnik_body_0"
    },
    {
      "mesh": 3,
      "name": "Sputnik_body_0"
    },
    {
      "mesh": 4,
      "name": "Sputnik_body_0"
    },
    {
      "mesh": 5,
      "name": "Sputnik_body_0"
    },
    {
      "mesh": 6,
      "name": "Sputnik_body_0"
    },
    {
      "mesh": 7,
      "name": "Sputnik_body_0"
    },
    {
      "children": [
        12
      ],
      "matrix": [
        0.06623000000000002,
        0.0,
        -0.0005800000000000001,
        0.0,
        -0.0004900000000000002,
        0.034980000000000004,
        -0.056240000000000005,
        0.0,
        -0.0009700000000000004,
        -0.17838,
        -0.11095000000000001,
        0.0,
        -0.0015500000000000006,
        -0.3382800000000001,
        1.0232599999999998,
        1.0
      ],
      "name": "antene"
    },
    {
      "mesh": 8,
      "name": "antene_0"
    },
    {
      "children": [
        14
      ],
      "matrix": [
        0.00021000000000000006,
        -0.12299000000000002,
        -0.22947000000000004,
        0.0,
        0.17524000000000003,
        0.0002700000000000001,
        1.0000000000000004e-05,
        0.0,
        0.00023000000000000006,
        -0.15445000000000003,
        0.08278000000000002,
        0.0,
        -0.35179,
        -0.6950500000000002,
        0.7565400000000001,
        1.0
      ],
      "name": "antene_cover"
    },
    {
      "mesh": 9,
      "name": "antene_cover_0"
    },
    {
      "children": [
        16
      ],
      "matrix": [
        -0.00021000000000000006,
        -0.12299000000000002,
        0.22947000000000004,
        0.0,
        -0.17524000000000003,
        0.0002700000000000001,
        -1.0000000000000004e-05,
        0.0,
        -0.00023000000000000006,
        -0.15445000000000003,
        -0.08278000000000002,
        0.0,
        0.3622,
        -0.6950500000000002,
        -0.74946,
        1.0
      ],
      "name": "antene_cover.001"
    },
    {
      "mesh": 10,
      "name": "antene_cover.001_0"
    },
    {
      "children": [
        18
      ],
      "matrix": [
        -0.06623000000000002,
        0.0,
        0.0005800000000000001,
        0.0,
        0.0004900000000000002,
        0.034980000000000004,
        0.056240000000000005,
        0.0,
        0.0009700000000000004,
        -0.17838,
        0.11095000000000001,
        0.0,
        0.011960000000000002,
        -0.3382800000000001,
        -1.01618,
        1.0
      ],
      "name": "antene.001"
    },
    {
      "mesh": 11,
      "name": "antene.001_0"
    },
    {
      "children": [
        20
      ],
      "matrix": [
        0.0005800000000000001,
        0.0,
        0.06623000000000002,
        0.0,
        0.056240000000000005,
        0.034980000000000004,
        -0.0004900000000000002,
        0.0,
        0.11095000000000001,
        -0.17838,
        -0.0009700000000000004,
        0.0,
        -1.0145199999999999,
        -0.3382800000000001,
        -0.003220000000000001,
        1.0
      ],
      "name": "antene.002"
    },
    {
      "mesh": 12,
      "name": "antene.002_0"
    },
    {
      "children": [
        22
      ],
      "matrix": [
        0.22947000000000004,
        -0.12299000000000002,
        0.00021000000000000006,
        0.0,
        -1.0000000000000004e-05,
        0.0002700000000000001,
        0.17524000000000003,
        0.0,
        -0.08278000000000002,
        -0.15445000000000003,
        0.00023000000000000006,
        0.0,
        -0.7477900000000002,
        -0.6950500000000002,
        -0.35345000000000004,
        1.0
      ],
      "name": "antene_cover.002"
    },
    {
      "mesh": 13,
      "name": "antene_cover.002_0"
    },
    {
      "children": [
        24
      ],
      "matrix": [
        -0.22947000000000004,
        -0.12299000000000002,
        -0.00021000000000000006,
        0.0,
        1.0000000000000004e-05,
        0.0002700000000000001,
        -0.17524000000000003,
        0.0,
        0.08278000000000002,
        -0.15445000000000003,
        -0.00023000000000000006,
        0.0,
        0.7582000000000001,
        -0.6950500000000002,
        0.36053,
        1.0
      ],
      "name": "antene_cover.003"
    },
    {
      "mesh": 14,
      "name": "antene_cover.003_0"
    },
    {
      "children": [
        26
      ],
      "matrix": [
        -0.0005800000000000001,
        0.0,
        -0.06623000000000002,
        0.0,
        -0.056240000000000005,
        0.034980000000000004,
        0.0004900000000000002,
        0.0,
        -0.11095000000000001,
        -0.17838,
        0.0009700000000000004,
        0.0,
        1.02493,
        -0.3382800000000001,
        0.010300000000000002,
        1.0
      ],
      "name": "antene.003"
    },
    {
      "mesh": 15,
      "name": "antene.003_0"
    },
    {
      "children": [
        28
      ],
      "matrix": [
        1.0,
        0.0,
        0.0,
        0.0,
        0.0,
        1.0,
        0.0,
        0.0,
        0.0,
        0.0,
        1.0,
        0.0,
        0.0,
        0.0,
        14.70754,
        1.0
      ],
      "name": "Sun"
    },
    {
      "name": "Sun"
    }
  ],
  "scene": 0,
  "scenes": [
    {
      "name": "Sketchfab_Scene",
      "nodes": [
        0
      ]
    }
  ]
}
