<svg xmlns="http://www.w3.org/2000/svg" xml:space="preserve" viewBox="0 0 1000 1000"><path fill="#FFF" d="M556 1001H1V1h1000v1000zm69.042-437.404c.318.48.635.96 1.027 2.147 3.121 7.175 3.121 7.175 9.819 5.26 2.365.006 4.73.011 7.213.798 1.154.728 2.292 2.051 3.466 2.085 6.965.198 13.947.272 20.904-.038 1.554-.07 3.032-1.842 5.372-2.838 1.377.007 2.754.014 4.245.775 2.67 2.658 6.92 2.995 8.417.5 1.226-2.041 2.079-4.306 2.868-5.984-1.563-1.005-3.052-1.9-4.476-2.889-5.52-3.827-6.972-11.13-13.329-14.648-3.939-2.18-6.452-6.92-9.636-10.483-5.351-5.987-10.738-11.942-16.087-17.93-2.498-2.797-4.872-5.706-7.43-8.446-3.821-4.093-7.804-8.036-11.602-12.15-.774-.837-1.557-2.205-1.441-3.227.393-3.463 1.057-6.832 5.312-8 1.207-.33 2.094-1.939 3.056-3.025 3.293-3.714 5.872-8.826 9.984-10.873 6.5-3.237 7.937-10.653 13.816-14.032.886-.51 1.002-2.356 2.211-3.602 4.035-1.076 6.387-3.497 6.99-8.027 6.74-5.993 13.48-11.986 20.957-18.104.17-1.533 1.03-3.928.387-4.442-2.253-1.798-4.901-3.554-7.646-4.11-1.557-.314-3.594 1.74-6.018 3.31-10.815-.194-21.63-.388-32.255-1.384 1.485-.413 2.965-1.161 4.456-1.184 7.785-.12 15.575.03 23.357-.143 1.303-.03 2.581-1.191 3.87-1.83-1.234-.693-2.453-1.952-3.706-1.986-7.119-.193-14.248.025-21.369-.132-5.948-.131-10.487 2.161-14.321 6.884-4.87.153-7.017 3.63-9.714 7.073-4.869 6.214-10.498 11.832-15.95 17.854l-5.385-.529c3.648 3.556 2.774 6.683-.135 8.142-3.063 1.537-3.286 3.721-4.182 6.538-1.635 1.24-3.525 2.256-4.855 3.765-3.523 3.997-6.804 8.209-10.981 12.148-.407-.654-1.17-1.308-1.169-1.962.002-15.038-.13-30.082.326-45.108.1-3.25-.844-3.736-3.557-4.203-.174-.276-.418-.458-.892-.999 0 0-.041-.478.006-1.315-1.21-.744-2.397-2.089-3.635-2.138-11.27-.442-22.549-.717-33.827-.917-5.696-.102-8.087 3.677-6.098 9.011.557 1.492.573 3.243.575 4.876.03 41.937.025 83.873.019 125.81 0 1.328.447 3.125-.232 3.897-2.33 2.651-.345 4.85-.32 7.293q-.483.446-.963.893l.617.533c.298-.506.595-1.011 1.631-1.61 1.377-.895 2.763-2.57 4.129-2.554 7.38.088 14.753.613 22.13.952 4.615.212 9.239.532 13.842.356.696-.026 1.298-2.489 2.025-3.8 0 0-.029-.079.766-.022 3.431-.44 3.392-2.898 3.382-5.53-.052-14.58-.037-29.162-.018-43.743.002-1.71.172-3.42.294-5.69 1.283.71 1.947.896 2.345 1.327 4.056 4.382 7.99 8.879 12.157 13.15.827.848 2.499.873 4.064 1.396 0 0 .143.273.118 1.049.756 1.966 1.178 4.159 2.332 5.854 2.857 4.194 5.54 8.72 9.235 12.075 4.498 4.082 6.322 11.125 13.445 12.818 0 0 .036.452.064 1.058m168.715-78.944c-.258-.23-.516-.46-.943-1.48-1.673-.39-3.344-1.103-5.02-1.118-11.815-.1-23.632-.055-35.448-.058-12.958-.003-13.35-.421-12.34-13.152.027-.332-.11-.806.064-.976 2.547-2.5.015-8.875 5.394-8.712 17.553.534 35.218-2.195 52.668 1.646.808.178 1.758-.288 3.556-.627-1.534-2.122-2.637-3.649-3.9-5.833.065-.443.13-.885.994-1.505.34-.342.972-.682.974-1.026.057-8.553.13-17.109-.1-25.656-.019-.711-2.162-1.965-3.302-1.948-6.663.099-13.32.717-19.982.76-18.454.12-36.91.111-55.365.006-6.946-.04-13.89-.635-20.833-.594-1.08.007-2.15 2.069-3.483 3.551 0 0-.405.202-1.239.138-.76 1.296-2.042 2.545-2.16 3.897-.183 2.085.67 4.24.672 6.367.049 41.82.05 83.639-.005 125.459-.002 1.732-.76 3.452-.942 5.2-.138 1.324-.42 3.18.282 3.888.7.705 2.558.423 3.883.303 1.732-.158 3.474-.961 5.15-.81 3.048.277 6.048 1.526 9.073 1.545 22.158.14 44.318.154 66.477.03 7.04-.04 14.079-.616 21.363-.535l1.053-.046c-.432-.122-.865-.244-1.307-1.2a86 86 0 0 1-.14-2.871s.229-.3 1.013-.478c.378-1.008 1.068-2.01 1.084-3.024.098-6.277.173-12.56-.042-18.831-.057-1.658-1.162-3.28-2.086-5.401-.288-.247-.576-.494-.926-1.42-1.262-.923-2.554-2.676-3.78-2.63-6.853.256-13.682 1.19-20.535 1.425-7.976.274-15.969.065-23.954.065h-6.429c-.446-5.614-1.024-10.38-1.153-15.157-.167-6.127.182-6.284 6.206-5.322.613.098 1.27-.12 1.91-.131 11.849-.216 23.717-.891 35.542-.444 6.497.245 12.236-3.616 12.28-10.286.045-6.93.01-13.861.01-21.351-.783-.265-2.318-.785-4.234-1.658m-487.844 28.29h52.191v-28.779h-55.191v-27.26h58.945V427.89H261.034v141.673h102.098v-28.76h-60.227c0-9.622 0-18.74.714-27.813.463-.098.926-.197 2.294-.048m-111.029 1.086v55.615h40.936V427.779h-41.063v54.135c-18.734 0-36.717-.099-54.698.08-3.754.038-4.836-1.097-4.789-4.814.185-14.661.065-29.327.058-43.99v-5.31H94.36v141.715h41.15v-56.598c10.203 0 19.833.03 29.464-.008 9.657-.04 19.314-.148 29.412-.002 0 0 .48.123.497 1.041m648.631-160.112c-8.316 5.28-14.814 12.044-18.142 21.914 8.658 1.488 14.286 6.062 14.452 14.827.177 9.332-6.048 13.771-14.718 15.743 7.496 16.63 19.78 26.086 37.823 27.029 17.411.91 30.878-6.606 39.285-21.642 8.62-15.42 7.588-31.071-2.52-45.678-11.16-16.128-34.045-24.067-56.18-12.193m-336.002 98.007c-3.74-6.73-9.161-11.746-15.855-15.427-11.666-6.415-24.296-8.91-37.472-8.951-18.993-.06-37.987-.01-56.98-.008h-9.952v142.088h41.014v-4.787c.007-13.662.165-27.326-.065-40.984-.073-4.351 2.078-5.447 5.457-4.644 1.845.438 3.771 1.966 4.952 3.536a3501 3501 0 0 1 32.374 43.735c1.866 2.564 3.818 3.597 7.012 3.56 14.493-.167 28.989-.064 43.484-.083 1.22-.002 2.441-.19 4.532-.365l-48.282-55.908c33.115-18.527 41.82-36.56 29.78-61.762m175.342 141.54c-5.492-2.866-11.294-3.371-17.351-2.494-9.186 1.33-16.107 6.052-19.042 14.778-3.116 9.263-2.388 18.389 5.409 25.647 5.082 4.731 11.27 6.49 17.986 5.527 12.248-1.757 18.801-6.282 22.36-17.494 2.957-9.32-.804-19.822-9.362-25.964m-73.487 28.446c2.464 3.73 4.863 7.506 7.433 11.161.806 1.147 2.014 2.716 3.14 2.806 4.208.333 8.457.133 13.484.133-.884-1.873-1.193-2.954-1.825-3.79a338 338 0 0 0-7.37-9.37c-2.298-2.826-3.039-4.928.775-7.591 4.792-3.347 6.227-8.777 4.65-14.255-1.475-5.122-5.443-8.457-10.881-8.982-6.252-.604-12.567-.513-18.84-.95-4.07-.282-5.097 1.54-5.034 5.313.184 10.971.063 21.948.063 32.923 0 6.796.02 6.475 6.653 6.859 4.613.266 5.906-1.412 5.4-5.673-.291-2.459-.142-4.99.055-7.47.045-.57 1.102-1.06 2.297-1.114m105.236 12.095c7.438 4.818 15.313 3.828 22.913.988 6.02-2.249 10.402-6.626 10.52-13.654.154-9.253.046-18.51-.026-27.765-.005-.726-.563-2.048-.94-2.075-2.963-.216-6.098-.733-8.847.036-1.124.314-1.94 3.558-2.006 5.5-.252 7.476-.041 14.966-.205 22.447-.113 5.18-2.683 7.52-7.804 7.584-5.3.067-8.075-2.985-8.214-9.51-.151-7.148-.228-14.309.029-21.45.145-4.044-1.459-5.462-5.264-5.05-1.152.125-2.332.107-3.49.026-2.95-.207-4.238 1.033-4.182 4.067.117 6.318-.478 12.694.176 18.946.721 6.884-.049 14.567 7.34 19.91m-158.172-42.229c-9.612 2.043-15.798 8.383-17.96 17.37-2.076 8.636.618 16.796 7.955 22.696 7.529 6.054 16.316 5.721 25.171 4.701 4.807-.553 7.344-2.896 6.525-8.226-.45-2.926-.08-5.977-.08-8.972-.002-7.5-.997-8.287-8.477-6.662-1.086.236-2.154.56-3.527.923v12.748c-6.965 2.03-14.628-4.503-14.995-12.106-.398-8.24 4.15-13.423 12.364-13.263 4.362.085 8.71.91 13.232 1.421v-11.874c-6.74.333-13.083.647-20.208 1.244m209.303.59c-.238 13.752-.518 27.503-.607 41.256-.005.795 1.49 2.205 2.384 2.29 3.045.287 6.134.11 9.745.11v-12.13c6.12-2.517 11.407-4.25 16.265-6.802 5.792-3.04 5.993-8.793 5.34-14.413-.582-4.995-4.938-9.963-10.07-10.391-7.37-.615-14.824-.226-23.057.08m-320.498 9.526c2.455 1.16 4.62.73 4.463-2.223-.16-2.987 2.703-7.752-2.887-8.485-4.676-.613-9.607-.667-14.242.115-6.636 1.12-12.048 4.891-15.366 10.869-4.997 9.004-4.179 18.172 1.385 26.448 5.467 8.134 14.21 9.123 23.186 8.26 8.04-.773 9.596-3.3 7.435-11.715-1.58.324-3.201.55-4.76.995-5.334 1.52-10.38 1.191-14.076-3.318-3.736-4.56-4.322-9.802-2.227-15.457 1.349-3.64 3.577-6.059 7.413-6.298 2.94-.183 5.923.353 9.676.81m30.757 21.597v12.587c2.884 0 4.894-.21 6.843.042 4.283.554 5.408-1.313 5.23-5.366-.3-6.814-.08-13.65-.085-20.476-.006-8.195 0-8.047 8.072-8.516 1.685-.098 4.254-1.408 4.703-2.738.778-2.3.216-5.053.216-7.93-12.4 0-23.875-.11-35.341.163-1.195.028-3.164 2.207-3.359 3.588-.857 6.073.136 6.993 6.248 7.034 2.294.015 4.589.003 7.013.003.031.06.31.348.313.64.068 6.657.104 13.314.147 20.969m294.832-228.08c1.22 2.14 2.047 4.678 3.734 6.345 5.701 5.636 14.19 5.89 20.461.985 5.529-4.325 7.005-12.885 3.362-19.487-3.543-6.422-11.7-9.072-19.129-6.215-6.698 2.576-10.251 9.83-8.428 18.373M399.858 602.54c0-2.165-.148-4.343.033-6.493.303-3.59-.982-5.39-4.793-4.995-1.483.154-3.23-.436-4.433.164-1.43.714-3.395 2.323-3.419 3.578-.25 12.818-.204 25.644-.057 38.466.013 1.104 1.325 3.117 2.061 3.13 3.415.059 6.84-.439 10.608-.767zm348.73-68.693.982-2.088-1.252-.223c-.125.738-.25 1.477.27 2.311m-60 27.67s-.11.066 0 0"/><path fill="#047ABF" d="M576.918 428.09s.041.477.029 1.162c.05 21.663.112 42.642.167 63.943.727.513 1.884 1.097 2.129.833 2.58-2.78 5.104-5.622 7.47-8.585 5.836-7.31 11.492-14.763 17.393-22.019 4.225-5.195 8.699-10.19 13.118-15.226a1577 1577 0 0 1 15.089-16.932c.513-.569 1.375-1.042 2.128-1.137 3.594-.453 7.202-.999 10.814-1.07 7.988-.157 15.985-.197 23.97.037 2.564.075 5.1 1.157 7.78 1.81-2.043 2.5-3.29 4.321-4.825 5.852-5.93 5.906-11.968 11.704-17.933 17.576-2.94 2.893-5.793 5.872-8.71 8.788-7.87 7.868-15.84 15.637-23.567 23.643-1.863 1.93-5.525 3.362-3.721 7.642-.143.77-.215 1.212-.56 1.873-1.35 4.225 1.262 6.35 3.948 8.397 1.015.773 2.371 1.192 3.189 2.113 6.36 7.163 12.536 14.492 18.954 21.602 5.083 5.632 10.455 11.002 15.649 16.535 4.049 4.313 8.09 8.637 11.999 13.077 2.3 2.611 4.332 5.457 6.845 8.656-1.515.543-2.53 1.236-3.528 1.214-9.442-.214-18.905-1.083-28.315-.673-6.948.303-13.585 1.601-17.261-6.342-.214-.462-1.324-.445-1.698-.908-3.49-4.317-8.013-8.227-10.089-13.16-2.98-7.081-8.5-10.413-14.505-13.717.057-.059-.018.087.033-.293-.349-1.42-.545-2.61-1.18-3.478-4.814-6.567-9.62-13.143-14.634-19.556-1.893-2.423-4.205-4.576-6.604-6.506-.59-.474-2.268.406-3.453 1.142.017 21.182.04 41.883-.016 62.931a37 37 0 0 0-.194 2.461s.029.08-.461.043c-13.7-.036-26.912-.036-40.1-.036V428.09z"/><path fill="#017BC1" d="M194.866 513.11s-.479-.123-.737-.594c-2.31-1.48-4.332-3.29-6.42-3.37-14.934-.573-29.882-.761-44.823-1.143-5.495-.14-8.842 2.986-8.875 8.837-.072 12.987.011 25.975-.071 38.963-.011 1.732-.614 3.46-1.24 5.23-.11.696.076 1.354.268 2.42-1.058 1.468-2.033 3.32-3.197 3.447-5.544.607-11.14.745-16.83.663-5.06-.76-10.008-1.133-15.2-1.683-.432-.738-.622-1.299-.792-2.2-.306-1.12-.631-1.9-.951-3.149.005-42.824.005-85.18.419-127.59 5.83-.18 11.259-.578 16.66-.352 5.547.233 11.014.746 16.166-2.633.434.018.607.025.941.28.712.422 1.262.596 1.822 1.015.01.245.034.734.185.983.688.442 1.225.635 1.77 1.292.016 16.132.024 31.8-.281 47.513-.465.918-.616 1.79-.767 2.66.698.08 1.395.157 2.35.25.43.026.602.036.936.371 2.974 1.466 6.821 1.855 8.337 3.94 1.9 2.614 3.788 2.718 6.251 2.72 10.627.002 21.253.042 31.88-.02 4.295-.025 9.034 1.284 11.965-3.598.263-.438 1.555-.258 2.424-.23.136.183.218.232.3.282-.12-.138-.24-.275-.31-.754.868-1.922 1.688-3.502 2.726-5.5-1.804-.099-2.772-.15-3.737-.67.002-14.068-.02-27.672.026-41.275.006-1.798.242-3.616.563-5.39.52-2.884 1.699-4.44 5.155-3.177 1.465.536 3.465-.39 5.461-.348 6.418.423 12.597.542 19.198.664 2.478.677 4.532 1.35 6.412 2.407-.4 2.005-.82 3.628-.821 5.251-.037 39.573-.04 79.146.014 118.72.002 1.554.636 3.108.93 5.052-.558 3.778-2.412 4.914-5.89 4.707-5.452-.324-10.945.08-16.406-.167-2.348-.106-5.383-2.294-6.857-1.423-5.598 3.309-5.721-.321-6.164-4.061-.232-1.957-.633-3.914-.642-5.872-.06-12.601.04-25.204-.127-37.803-.021-1.564-1.316-3.11-2.02-4.665"/><path fill="#027BC1" d="M305.008 512.695c-.463.098-.926.197-1.984.038-1.073.757-1.905 1.75-1.965 2.79-.22 3.817.903 8.119-.497 11.369-2.156 5.003-1.406 9.242.203 13.894.88 2.544 1.873 3.468 4.94 3.353 16.53-.619 33.077-.786 49.616-1.17 3.994-.093 5.947 1.656 5.695 5.68-.3 4.79-.751 9.572-.923 14.365-.107 3.014-1.507 4.046-4.383 4.04-27.158-.049-54.316.027-81.473-.113-3.564-.018-7.545-.309-10.473-1.98-1.148-.656.084-5.454.2-8.367.047-1.164.008-2.332.008-3.498V431.625c5.249-.543 10.566-1.452 15.9-1.57 11.158-.246 22.326-.201 33.487-.042 13.787.196 27.57.714 41.357.907 3.746.053 4.353 1.96 4.345 5.08-.013 4.978.228 9.958.45 14.933.138 3.12-1.356 4.081-4.262 3.726-1.938-.237-3.91-.292-5.866-.273-13.13.128-26.362 1.367-39.361.141-12.202-1.15-9.854 1.115-9.927 9.709-.006.799.595 1.6.601 2.402.04 5.489 1.94 11.219-1.982 15.825 1.235 4.069 3.975 4.636 7.493 4.598 14.327-.155 28.658-.17 42.984.052 1.93.03 5.408 1.584 5.494 2.648.518 6.43.258 12.924.258 19.26-16.09 0-30.72.02-45.351-.02-2.626-.008-4.74.37-4.584 3.694"/><path fill="#097ABD" d="M843.838 353.735c21.812-11.693 44.698-3.754 55.857 12.374 10.108 14.607 11.14 30.259 2.52 45.678-8.407 15.036-21.874 22.551-39.285 21.642-18.044-.943-30.327-10.398-37.823-27.03 8.67-1.971 14.895-6.41 14.718-15.742-.166-8.765-5.794-13.34-14.452-14.827 3.328-9.87 9.826-16.634 18.465-22.095M879.94 395.8c.103-4.296 1.593-9.203.024-12.762-3.337-7.57-14.362-10.486-22.017-7.014-6.661 3.022-10.805 9.6-9.83 15.606 1.578 9.703 7.23 15.8 15.404 16.613 8.05.8 15.41-4.637 15.423-11.837 0 0 .236-.398.996-.606"/><path fill="#2379AA" d="M305.46 512.819c-.607-3.449 1.506-3.826 4.132-3.818 14.63.04 29.26.02 45.35.02 0-6.336.261-12.83-.257-19.26-.086-1.064-3.564-2.618-5.494-2.648-14.326-.223-28.657-.207-42.984-.052-3.518.038-6.258-.53-7.493-4.598 3.923-4.606 2.023-10.336 1.982-15.825-.006-.802-.607-1.603-.6-2.402.072-8.594-2.276-10.859 9.926-9.709 13 1.226 26.23-.013 39.36-.14 1.956-.02 3.929.035 5.867.272 2.906.355 4.4-.606 4.262-3.726-.222-4.975-.463-9.955-.45-14.932.008-3.12-.599-5.028-4.345-5.08-13.787-.194-27.57-.712-41.357-.908-11.16-.16-22.33-.204-33.487.042-5.334.118-10.651 1.027-15.9 1.57v121.47c0 1.167.039 2.335-.008 3.5-.116 2.912-1.348 7.71-.2 8.366 2.928 1.671 6.909 1.962 10.473 1.98 27.157.14 54.315.064 81.473.114 2.876.005 4.276-1.027 4.383-4.041.172-4.793.624-9.576.923-14.364.252-4.025-1.7-5.774-5.695-5.681-16.54.384-33.086.551-49.616 1.17-3.067.115-4.06-.809-4.94-3.353-1.609-4.652-2.359-8.891-.203-13.894 1.4-3.25.277-7.552.497-11.37.06-1.038.892-2.032 1.608-2.811.238 9.353.238 18.47.238 28.093h60.227v28.76H261.034V427.89h100.824v29.013h-58.945v27.26h55.191v28.78c-17.583 0-34.887 0-52.643-.124"/><path fill="#287DAB" d="M507.703 452.239c11.849 24.886 3.144 42.92-29.971 61.446l48.282 55.908c-2.09.175-3.311.363-4.532.365-14.495.02-28.99-.084-43.484.083-3.194.037-5.146-.996-7.012-3.56a3501 3501 0 0 0-32.374-43.735c-1.18-1.57-3.107-3.098-4.952-3.536-3.379-.803-5.53.293-5.457 4.644.23 13.658.072 27.322.065 40.984v4.787h-41.014V427.537h9.952c18.993-.003 37.987-.053 56.98.008 13.176.041 25.806 2.536 37.472 8.95 6.694 3.682 12.114 8.698 16.045 15.744M388.98 531.5c.005 9.997-.154 19.999.165 29.985.058 1.83 2.056 3.596 3.158 5.392 3.738-3.307 7.37.347 11.079.204 5.49-.212 11.001-.23 16.49 0 3.94.165 5.262-1.361 5.212-5.25-.166-13.16-.067-26.323-.069-39.486v-5.295c8.676-3.487 14.38-.785 18.775 6.113 3.023 4.744 6.446 9.237 9.766 13.786 3.125 4.283 6.411 8.448 9.514 12.746 3.568 4.942 9.907 7.86 10.638 15.023.097.947 3.514 2.182 5.411 2.216 11.66.203 23.324.115 34.987.074 1.201-.004 2.401-.338 4.646-.677-3.738-4.157-6.786-7.546-9.831-10.937-2.622-2.92-5.297-5.796-7.848-8.777-4.99-5.834-9.898-11.738-14.863-17.594-3.305-3.898-6.926-7.565-9.891-11.704-2.691-3.757-.86-8.541 3.687-9.167 6.788-.934 10.57-6.454 16.011-9.37 1.607-.86 2.765-2.552 4.143-3.848 5.337-5.023 7.583-11.41 7.92-18.527.235-5.003.88-10.148.053-15.01-1.948-11.445-11.36-17.564-19.919-23.078-6.361-4.098-14.648-6.234-22.313-7.055-12.677-1.359-25.543-1.187-38.33-1.218-10.452-.026-20.904.61-31.356.922-7.233.215-7.237.191-7.237 7.563 0 30.656 0 61.313.002 92.969"/><path fill="#2379AA" d="M96.93 564.02c.19.561.379 1.122.91 2.248 5.3.938 10.257 1.31 15.214 1.682 5.577-.305 11.173-.443 16.717-1.05 1.164-.127 2.139-1.979 3.21-3.788l.016-2.12c.329-1.729.932-3.457.943-5.19.082-12.987 0-25.975.071-38.962.033-5.85 3.38-8.978 8.875-8.837 14.941.382 29.889.57 44.822 1.143 2.089.08 4.11 1.89 6.2 3.258-9.619.437-19.276.546-28.933.585-9.63.039-19.261.008-29.464.008v56.598h-41.15V427.88h40.967v5.31c.007 14.663.127 29.329-.058 43.99-.047 3.717 1.035 4.852 4.789 4.814 17.98-.179 35.964-.08 54.698-.08v-54.135h41.063v141.864h-40.936c0-18.733 0-37.174-.009-56.074.696 1.096 1.991 2.642 2.012 4.206.168 12.6.067 25.202.127 37.803.009 1.958.41 3.915.642 5.872.443 3.74.566 7.37 6.164 4.061 1.474-.871 4.509 1.317 6.857 1.423 5.46.247 10.954-.157 16.406.167 3.478.207 5.332-.929 6.183-5.005.466-1.331.708-1.976.709-2.62.02-40.93.029-81.861-.018-122.792-.001-1.232-.608-2.464-.932-3.696-2.055-.673-4.109-1.347-6.79-2.363-6.829-.437-13.032-.532-19.234-.628-1.757.262-3.757 1.187-5.222.65-3.456-1.263-4.635.294-5.155 3.178-.32 1.774-.557 3.592-.563 5.39-.045 13.603-.024 27.207-.055 41.695-1.411 1.618-2.786 2.977-4.17 2.988-18.599.142-37.2.097-55.799.098-.172-.01-.344-.02-.799-.358-.604-1.1-.924-1.872-1.244-2.645-.009-15.667-.017-31.335-.175-47.726-.693-.91-1.236-1.096-1.78-1.282 0 0-.024-.49-.195-.981-.72-.666-1.27-.841-1.82-1.015-.174-.008-.347-.015-1.08-.318-10.113-.42-19.672-.693-29.22-.488-1.268.028-2.482 2.482-3.722 3.812 0 42.356 0 84.712-.256 127.734.224 1.542.704 2.416 1.184 3.291"/><path fill="#C7C8C9" d="M683.179 593.651c8.233 5.954 11.994 16.456 9.036 25.776-3.558 11.212-10.111 15.737-22.359 17.494-6.715.964-12.904-.796-17.986-5.527-7.797-7.258-8.525-16.384-5.409-25.647 2.935-8.726 9.856-13.448 19.042-14.778 6.057-.877 11.859-.372 17.676 2.682m-8.66 8.128c-7.47-3.477-14.871-.743-16.265 6.38-.625 3.195-.49 6.689.037 9.927.921 5.654 5.236 8.981 10.756 8.974 5.832-.008 9.556-2.958 10.695-8.979 1.132-5.986.252-11.566-5.223-16.302M609.065 621.673c-.893.29-1.95.78-1.995 1.35-.197 2.48-.346 5.011-.054 7.47.505 4.261-.788 5.94-5.401 5.673-6.634-.384-6.653-.063-6.653-6.859 0-10.975.12-21.952-.063-32.923-.063-3.772.965-5.595 5.035-5.312 6.272.436 12.587.345 18.839.949 5.438.525 9.406 3.86 10.88 8.982 1.578 5.478.143 10.908-4.649 14.255-3.814 2.663-3.073 4.765-.775 7.591 2.507 3.083 4.973 6.2 7.37 9.37.632.836.941 1.917 1.825 3.79-5.027 0-9.276.2-13.483-.133-1.127-.09-2.335-1.66-3.14-2.806-2.571-3.655-4.97-7.431-7.736-11.397m-2.106-15.214c-.745 4.918 2.382 4.873 5.761 4.487 3.563-.407 4.679-2.687 4.295-5.898-.428-3.584-3.717-4.69-9.8-3.268-.082 1.206-.169 2.487-.256 4.68"/><path fill="#3082AE" d="M797.984 453.015c-.065.442-.13.884-.287 2.018-1.228 1.107-2.364 1.881-3.502 1.883-18.404.033-36.809-.032-55.142-.425 3.84-4.907 8.87-1.508 13.111-1.864 10.366-.872 20.889.261 31.35.323 3.465.02 6.977-.577 10.375-1.319.849-.185 1.91-2.034 1.894-3.104-.083-5.627-.358-11.26-.886-16.861-.092-.974-1.62-2.426-2.652-2.587-3.914-.61-7.895-1.058-11.853-1.073a9752 9752 0 0 0-70.474-.005c-3.347.011-6.691.58-10.953.975v5.132c0 40.318-.005 80.637.008 120.956.001 3.192-1.107 7.905.493 9.197 2.08 1.68 6.355.752 9.686.757 23.825.033 47.65.025 71.475.011 4.247-.002 8.51.086 12.73-.278.965-.083 2.463-1.803 2.56-2.875.567-6.268.79-12.567 1.38-19.074.395-1.316.54-2.413.68-3.629-.003-.118-.02-.352-.02-.352.287.246.575.493.9 1.434.098 9.376.16 18.058.223 26.74 0 0-.228.3-.69.531-33.737.275-67.012.32-100.287.34-.444 0-.889-.33-1.817-.696V428.132s.405-.202.953-.32c32.26-.18 63.974-.181 95.686-.39 3.694-.024 4.986.926 4.886 4.698-.184 6.958.09 13.929.173 20.895"/><path fill="#C7C8C9" d="M714.312 633.77c-7.098-5.109-6.328-12.792-7.049-19.676-.654-6.252-.059-12.628-.176-18.946-.056-3.034 1.233-4.274 4.182-4.067 1.158.08 2.338.1 3.49-.025 3.805-.413 5.41 1.005 5.264 5.048-.257 7.142-.18 14.303-.029 21.452.139 6.524 2.914 9.576 8.214 9.51 5.12-.066 7.69-2.405 7.804-7.585.164-7.48-.047-14.971.205-22.448.066-1.941.882-5.185 2.006-5.5 2.749-.768 5.884-.251 8.848-.035.376.027.934 1.349.94 2.075.07 9.255.179 18.512.025 27.765-.118 7.028-4.5 11.405-10.52 13.654-7.6 2.84-15.475 3.83-23.204-1.221M556.822 591.634c6.734-.456 13.077-.77 19.817-1.103v11.874c-4.523-.51-8.87-1.336-13.232-1.421-8.213-.16-12.762 5.023-12.364 13.263.367 7.603 8.03 14.135 14.995 12.106v-12.748c1.373-.362 2.44-.687 3.527-.923 7.48-1.625 8.475-.837 8.477 6.662 0 2.995-.37 6.046.08 8.972.82 5.33-1.718 7.673-6.525 8.226-8.855 1.02-17.642 1.353-25.17-4.701-7.338-5.9-10.032-14.06-7.955-22.696 2.16-8.987 8.347-15.327 18.35-17.511M766.141 592.192c7.826-.133 15.28-.522 22.65.093 5.132.428 9.488 5.396 10.07 10.39.653 5.62.452 11.374-5.34 14.414-4.858 2.551-10.145 4.285-16.265 6.801v12.13c-3.61 0-6.7.178-9.745-.11-.895-.084-2.389-1.494-2.384-2.289.089-13.753.369-27.504 1.014-41.429m20.05 17.348c1.634-6.858-1.247-9.491-9.628-7.657l1.808 10.896c2.492-.842 4.984-1.685 7.82-3.239M444.842 601.771c-3.36-.336-6.343-.872-9.282-.69-3.836.24-6.064 2.66-7.413 6.3-2.095 5.654-1.51 10.896 2.227 15.456 3.696 4.51 8.742 4.838 14.075 3.318 1.56-.444 3.18-.67 4.76-.995 2.162 8.415.606 10.942-7.434 11.715-8.975.863-17.719-.126-23.186-8.26-5.564-8.276-6.382-17.444-1.385-26.448 3.318-5.978 8.73-9.75 15.366-10.869 4.635-.782 9.566-.728 14.242-.115 5.59.733 2.727 5.498 2.887 8.485.158 2.952-2.008 3.383-4.857 2.103M475.993 622.99c-.043-7.156-.08-13.813-.147-20.47-.003-.292-.282-.58-.313-.64-2.424 0-4.719.012-7.013-.003-6.112-.04-7.105-.961-6.248-7.034.195-1.381 2.164-3.56 3.359-3.588 11.466-.273 22.94-.164 35.341-.164 0 2.878.562 5.63-.216 7.931-.45 1.33-3.018 2.64-4.703 2.738-8.072.47-8.078.321-8.072 8.516.005 6.826-.215 13.662.085 20.476.178 4.053-.947 5.92-5.23 5.366-1.95-.251-3.959-.042-6.843-.042z"/><path fill="#117AB7" d="M770.732 395.017c-1.73-8.15 1.823-15.404 8.521-17.98 7.429-2.857 15.586-.207 19.13 6.215 3.642 6.602 2.166 15.162-3.363 19.487-6.27 4.905-14.76 4.651-20.46-.985-1.688-1.667-2.514-4.205-3.828-6.737"/><path fill="#E6FBFD" d="M695.87 428.1c.416 47.077.416 94.122.416 141.07.928.367 1.373.696 1.817.696 33.275-.02 66.55-.065 100.28-.151.506.788.557 1.62.612 2.868-7.034.748-14.072 1.325-21.113 1.364-22.159.124-44.319.11-66.477-.03-3.025-.019-6.025-1.268-9.073-1.544-1.676-.152-3.418.651-5.15.809-1.325.12-3.184.402-3.883-.303-.701-.708-.42-2.564-.282-3.887.182-1.75.94-3.469.942-5.201q.08-62.73.005-125.46c-.002-2.125-.855-4.28-.672-6.366.118-1.352 1.4-2.601 2.577-3.865"/><path fill="#3082AE" d="M792.983 483.962c.258.23.516.46.91 1.332.134 9.535.134 18.43.134 27.966h-56.08c0 8.625-.08 16.591.092 24.552.024 1.104 1.296 2.182 2.204 3.529 1.09.428 1.965.6 2.75 1.098-3.447 1.083-6.817 1.49-6.922-3.36-.17-7.822-.167-15.653.009-23.474.097-4.308 1.698-6.877 6.989-6.693 11.807.41 23.657.553 35.455.023 15.602-.7 12.328 2.685 12.365-13.526.02-8.752-.58-8.75-9.418-8.45-.997.034-1.998-.019-2.996.011-11.279.338-22.559.63-33.834 1.053-5.11.191-8.532-2.684-8.597-7.736-.083-6.492-.131-12.99.073-19.477.04-1.26 1.305-2.48 1.979-3.257-.027 9.039-.027 17.615-.027 26.41z"/><path fill="#E6FBFD" d="M740.03 541.083c-.695-1.09-1.967-2.167-1.99-3.271-.174-7.96-.093-15.927-.093-24.552h56.08c0-9.537 0-18.431.055-27.79 1.591.055 3.126.575 3.909.84 0 7.49.035 14.42-.01 21.35-.044 6.671-5.783 10.532-12.28 10.287-11.825-.447-23.693.228-35.543.444-.638.011-1.296.229-1.91.13-6.023-.961-6.372-.804-6.205 5.323.13 4.778.707 9.543 1.153 15.157h6.429c7.985 0 15.978.209 23.954-.065 6.853-.235 13.682-1.17 20.535-1.425 1.226-.046 2.518 1.707 3.811 2.97.032.34.049.574-.393.555-19.462.003-38.483.025-57.503.047"/><path fill="#C7C8C9" d="M399.858 603.034v32.59c-3.768.327-7.193.825-10.608.765-.736-.012-2.048-2.025-2.06-3.129-.148-12.822-.193-25.648.056-38.466.024-1.255 1.99-2.864 3.42-3.578 1.202-.6 2.949-.01 4.432-.164 3.811-.395 5.096 1.404 4.793 4.995-.181 2.15-.033 4.328-.033 6.987"/><path fill="#D7F7FB" d="M576.941 427.67c-13.452.42-26.881.42-40.674.42v141.692c13.19 0 26.4 0 40.06.024-.196 1.36-.798 3.822-1.494 3.848-4.603.176-9.227-.144-13.842-.356-7.377-.339-14.75-.864-22.13-.952-1.366-.017-2.752 1.659-4.495 2.604-.366.05-.36.056-.36.056-.584-2.366-2.568-4.564-.239-7.215.679-.772.231-2.57.232-3.897.006-41.937.01-83.873-.02-125.81 0-1.633-.017-3.384-.574-4.876-1.989-5.334.402-9.113 6.098-9.011 11.278.2 22.557.475 33.827.917 1.238.05 2.424 1.394 3.611 2.557"/><path fill="#E6FBFD" d="M617.961 496.06c.073-.44.145-.882.59-1.762a4278 4278 0 0 1 19.82-19.48c6.124-5.986 12.259-11.96 18.692-17.902.507.046.711.054.924.07.008.01.027.027.027.027-.472 1.229-.588 3.076-1.474 3.585-5.879 3.38-7.317 10.795-13.816 14.032-4.112 2.047-6.691 7.16-9.984 10.873-.962 1.086-1.85 2.694-3.056 3.025-4.255 1.168-4.92 4.537-5.312 8-.116 1.022.667 2.39 1.44 3.227 3.8 4.114 7.782 8.057 11.603 12.15 2.558 2.74 4.932 5.65 7.43 8.446 5.349 5.988 10.736 11.943 16.087 17.93 3.184 3.563 5.697 8.304 9.636 10.483 6.357 3.518 7.81 10.82 13.329 14.648 1.424.988 2.913 1.884 4.476 2.889-.79 1.678-1.642 3.943-2.868 5.984-1.498 2.495-5.748 2.158-8.109-.891 1.408-.7 2.508-1.009 3.932-1.377 1.137-.131 1.95-.202 3.514-.338-1.794-2.202-3.148-4.026-4.667-5.701-13.165-14.513-26.33-29.025-39.555-43.484-7.496-8.196-15.102-16.292-22.659-24.433M798.383 452.926c-.482-6.877-.756-13.848-.572-20.806.1-3.772-1.192-4.722-4.886-4.697-31.712.208-63.426.209-95.557.204.657-1.18 1.725-3.241 2.806-3.248 6.943-.041 13.887.554 20.833.594 18.455.105 36.91.113 55.365-.006 6.662-.043 13.319-.661 19.982-.76 1.14-.017 3.283 1.237 3.302 1.948.23 8.547.157 17.103.1 25.656-.002.344-.635.684-1.373 1.115M792.898 483.567c-17.997.395-36.079.395-54.829.395 0-8.794 0-17.37.25-26.441.25-.495.663-.68.663-.68 18.404.043 36.809.108 55.213.075 1.138-.002 2.274-.776 3.582-1.554 1.274 1.164 2.377 2.69 3.91 4.813-1.797.339-2.747.805-3.555.627-17.45-3.841-35.115-1.112-52.668-1.646-5.38-.163-2.847 6.211-5.394 8.712-.173.17-.037.644-.064.976-1.01 12.731-.618 13.149 12.34 13.152 11.816.003 23.633-.041 35.448.058 1.676.015 3.347.728 5.104 1.513"/><path fill="#D7F7FB" d="M577.227 569.804c-.36-.734-.323-1.44.07-2.797.47-17.896.536-35.14.742-52.383.035-2.94.67-5.873 1.24-8.685.485.324.675.585.867 1.163.376.458.665.66 1.23 1.044 6.246 7.613 12.218 15.045 18.189 22.477-1.282-.404-2.954-.43-3.781-1.277-4.167-4.271-8.101-8.768-12.157-13.15-.398-.43-1.062-.616-2.345-1.326-.122 2.268-.292 3.979-.294 5.69-.02 14.58-.034 29.161.018 43.742.01 2.632.05 5.09-3.78 5.502"/><path fill="#CCF1FA" d="M640.976 425.04c10.815.195 21.63.39 33.142.288 2.76.534 4.825 1.363 6.437 2.326-14.434.162-28.425.45-42.398.083-5.258-.139-8.522 1.735-11.748 5.64-8.885 10.753-18.174 21.174-27.388 31.637-.085-.09-.247-.275-.247-.275.21-2.63.432-4.814 3.495-6.351 2.909-1.46 3.783-4.586.135-8.142l5.385.53c5.452-6.023 11.081-11.641 15.95-17.855 2.697-3.444 4.845-6.92 10.388-6.982 2.733-.238 4.791-.568 6.85-.898"/><path fill="#F3FDFD" d="M578.065 429.98c2.499.053 3.442.54 3.343 3.789-.456 15.026-.324 30.07-.326 45.108 0 .654.762 1.308 1.631 2.56.67 1.241.878 1.885.991 2.598-.093.069-.11.3-.488.223-1.73.299-3.08.674-5.151 1.25zM641.071 424.64c-2.153.73-4.211 1.061-6.668 1.39 2.884-4.905 7.423-7.197 13.371-7.066 7.12.157 14.25-.061 21.369.132 1.253.034 2.472 1.293 3.707 1.986-1.29.639-2.568 1.8-3.87 1.83-7.783.174-15.573.022-23.358.143-1.49.023-2.97.77-4.55 1.585"/><path fill="#D7F7FB" d="M624.922 562.09c-7.067-1.245-8.891-8.288-13.39-12.37-3.695-3.355-6.377-7.881-9.234-12.075-1.154-1.695-1.576-3.888-2.023-6.162 1.067.354 1.825 1.016 2.584 1.678 0 0 .075-.146.079.252 7.345 9.5 14.687 18.605 22.025 27.951-.003.243-.041.726-.041.726"/><path fill="#287DAB" d="M602.91 532.781c-.81-.282-1.568-.944-2.623-1.686-.296-.08-.44-.353-.58-.412-6.113-7.492-12.085-14.924-18.412-22.8-.65-.641-.942-.84-1.235-1.037-.106-.322-.296-.583-.86-1.192a18.6 18.6 0 0 0-2.155-1.75c1.179-.257 2.858-1.137 3.447-.663 2.4 1.93 4.71 4.083 6.604 6.506 5.014 6.413 9.82 12.99 14.633 19.556.636.868.832 2.058 1.18 3.478"/><path fill="#CCF1FA" d="M577.958 429.773c.107 18.691.107 37.175.107 55.735 2.07-.576 3.421-.951 5.04-.923-1.816 3.033-3.9 5.66-5.984 8.288-.062-20.979-.125-41.958-.095-63.395.407-.37.651-.188.932.295"/><path fill="#E6FBFD" d="M672.016 571.017c-1.513.989-2.991 2.761-4.545 2.83-6.957.311-13.939.237-20.904.039-1.174-.034-2.312-1.357-3.055-2.488 9.776-.396 19.14-.388 28.504-.38"/><path fill="#CCF1FA" d="M685.961 430.99c-6.74 5.993-13.48 11.986-20.694 17.888-.475-.09-.703-.443-.547-.725 2.21-2.403 4.319-4.475 6.307-6.656 4.064-4.457 8.063-8.972 12.4-13.44 1.053.993 1.794 1.963 2.534 2.933M583.798 483.965a27 27 0 0 1-.685-2.435c3.315-4.63 6.596-8.842 10.12-12.84 1.329-1.508 3.22-2.523 5.198-3.857.343-.094.505.092.47.495-5.057 6.481-10.08 12.56-15.103 18.637"/><path fill="#E6FBFD" d="M799.472 568.906c-.455-8.593-.517-17.275-.465-26.409.737 1.186 1.842 2.807 1.899 4.465.215 6.27.14 12.554.042 18.831-.016 1.013-.706 2.016-1.476 3.113"/><path fill="#F3FDFD" d="M686.33 430.927c-1.11-.907-1.85-1.877-3.257-2.945-1.134-.22-1.6-.34-2.067-.462-2.063-.829-4.127-1.658-6.586-2.483 1.425-.984 3.462-3.038 5.019-2.723 2.745.555 5.393 2.31 7.646 4.11.643.513-.216 2.908-.755 4.503"/><path fill="#CCF1FA" d="M672.43 571.014c-9.778-.004-19.142-.012-28.977-.007-2.836.007-5.2.002-8.007-.239-.441-.235-.444-.706.017-.792 15.488-.024 30.515.038 45.541.1-1.1.31-2.2.618-3.665.94-1.742.008-3.12 0-4.91-.002"/><path fill="#E6FBFD" d="M635.002 570.062s.003.471 0 .707c-5.812 2.149-5.812 2.149-8.967-5.639-.034-.785-.033-.958.262-1.154.488-.06.682-.097.858-.094-.018.04-.068-.031-.006.222.325.467.588.682 1.108 1.05 1.141 1.23 2.026 2.306 2.974 3.716.44.544.818.754 1.52.962.966.074 1.608.152 2.25.23M664.918 448.956c.22 4.543-2.132 6.964-6.535 8.049-.369.008-.388-.01-.384-.339.011-.757.018-1.185.12-1.854.378-.425.662-.608 1.16-.876.487-.258.667-.5.75-.86-.003-.05.094-.043.288-.124.44-.242.604-.464.803-.886.116-.14.471-.22.776-.273.483-.4.662-.747.838-1.03-.003.062-.097-.021.224-.07.56-.617.8-1.182 1.15-1.91.111-.161.456-.348.456-.348s.228.353.354.52M748.266 533.8c-.198-.787-.073-1.526.052-2.264l1.252.223c-.327.696-.654 1.392-1.304 2.04"/><path fill="#D7F7FB" d="M533.997 574.997q-.45.753-.896 1.513l-.617-.533c.32-.298.641-.596 1.242-.932.28-.039.274-.045.27-.048"/><path fill="#E6FBFD" d="M799.123 573.206c.31-.084.743.038 1.175.16-.35.015-.702.03-1.175-.16"/><path fill="#D7F7FB" d="M626.002 564c0 .172 0 .345-.005.776-.32-.22-.637-.7-.64-1.546.528-.43.742-.496.946-.538a7 7 0 0 0-.117.373 9 9 0 0 0-.184.935"/><path fill="#CCF1FA" d="M626.313 562.67c-.214.064-.428.13-.97.257-.329.063-.365-.389-.393-.613s.01-.707.254-.834c.532.312.82.75 1.109 1.19"/><path fill="#E6FBFD" d="M688.533 561.55c-.056.033.055-.033 0 0"/><path fill="#287DAB" d="M659.065 454.02c-.284.184-.568.367-1.217.909-.606.889-.847 1.42-1.088 1.95-6.13 5.979-12.265 11.953-18.389 17.938-6.488 6.342-12.965 12.695-19.75 19.152-2.176-3.842 1.486-5.275 3.349-7.204 7.726-8.006 15.697-15.775 23.567-23.643 2.917-2.916 5.77-5.895 8.71-8.788 5.965-5.872 12.003-11.67 17.933-17.576 1.536-1.53 2.782-3.352 4.825-5.852-2.68-.653-5.216-1.735-7.78-1.81-7.985-.234-15.982-.194-23.97-.037-3.612.071-7.22.617-10.814 1.07-.754.095-1.615.568-2.128 1.137a1577 1577 0 0 0-15.089 16.932c-4.42 5.035-8.893 10.03-13.118 15.226-5.9 7.256-11.557 14.71-17.392 22.019-2.367 2.963-4.891 5.806-7.471 8.585-.245.264-1.402-.32-2.129-.833 2.09-2.95 4.175-5.577 6.369-8.532.11-.328.128-.56.221-.628 5.117-6.148 10.14-12.226 15.282-18.618 9.249-10.866 18.538-21.287 27.423-32.04 3.226-3.905 6.49-5.779 11.748-5.64 13.973.367 27.964.079 42.398-.083.918-.013 1.384.109 2.205.304-3.67 4.567-7.67 9.082-11.733 13.54-1.988 2.18-4.097 4.252-6.307 6.655-.156.282-.5.469-.903.73-.66.793-.92 1.326-1.18 1.859 0 0 .094.083-.168.123-.467.354-.673.668-.878.982 0 0-.355.08-.701.244-.646.338-.786.597-.767.942 0 0-.097-.006-.33.093-.538.278-.703.543-.728.895M626.303 562.692a7.7 7.7 0 0 0-1.096-1.454 1514 1514 0 0 1-22.326-27.766c6.001 2.906 11.522 6.238 14.501 13.32 2.076 4.932 6.599 8.842 10.089 13.16.374.462 1.484.445 1.698.907 3.676 7.943 10.313 6.645 17.261 6.342 9.41-.41 18.873.46 28.315.673.998.022 2.013-.67 3.528-1.214-2.513-3.199-4.546-6.045-6.845-8.656-3.909-4.44-7.95-8.764-12-13.077-5.193-5.533-10.565-10.903-15.648-16.535-6.418-7.11-12.593-14.44-18.954-21.602-.818-.92-2.174-1.34-3.189-2.113-2.686-2.046-5.297-4.172-3.947-8.397 7.828 7.922 15.434 16.018 22.93 24.214 13.224 14.459 26.39 28.97 39.555 43.484 1.52 1.675 2.873 3.5 4.667 5.7-1.564.137-2.377.208-3.514.339-15.35-.003-30.377-.065-45.865-.041-1.104.008-1.746-.07-2.865-.412-.794-.519-1.112-.773-1.43-1.027-.885-1.077-1.77-2.153-2.964-3.643-.579-.623-.848-.833-1.117-1.043 0 0 .05.071.015-.216-.298-.483-.56-.679-.823-.874 0 0 .014-.047.024-.07"/><path fill="#CCF1FA" d="M577.039 504.383c.629-.032 1.25.415 1.95 1.147-.28 3.221-.915 6.154-.95 9.094-.206 17.243-.272 34.487-.66 52.038-.3-20.396-.323-41.097-.34-62.279"/><path fill="#1978AF" d="M136.2 484.32c18.437-.325 37.037-.28 55.636-.422 1.384-.01 2.759-1.37 4.167-2.522.997-.367 1.965-.315 3.769-.217-1.038 1.999-1.858 3.58-2.725 5.5-.047.341-.045.339-.045.339-.815.106-2.107-.074-2.37.364-2.931 4.882-7.67 3.573-11.965 3.598-10.627.062-21.253.022-31.88.02-2.463-.002-4.35-.106-6.251-2.72-1.516-2.085-5.363-2.474-8.337-3.94"/><path fill="#097ABD" d="M232.85 433.37c.499.85 1.106 2.082 1.107 3.314.047 40.93.038 81.861.018 122.792 0 .644-.243 1.289-.664 2.231-.632-1.257-1.266-2.81-1.268-4.366-.054-39.573-.05-79.146-.014-118.719.001-1.623.422-3.246.821-5.251"/><path fill="#1978AF" d="M96.417 432.94c.825-1.275 2.04-3.73 3.307-3.757 9.548-.205 19.107.068 28.96.477-4.593 3.675-10.06 3.162-15.607 2.93-5.401-.227-10.83.171-16.66.35"/><path fill="#097ABD" d="M207.24 430.3a182 182 0 0 1 18.572.323c-5.975.219-12.154.1-18.572-.323"/><path fill="#1978AF" d="M112.941 567.563c-4.844.015-9.801-.357-14.857-1.117 4.85-.016 9.797.358 14.857 1.117M133.68 481.04c.634.726.954 1.498 1.3 2.583-.672.233-1.37.155-2.067.077.151-.872.302-1.743.767-2.66M96.949 563.68c-.499-.535-.98-1.41-1.208-2.482.577.582.902 1.363 1.208 2.483M132.7 561.033c.294.415.292.871.276 1.669-.2-.315-.387-.973-.277-1.67M132.19 432.234c.393-.063.936.123 1.621.568-.395.067-.932-.126-1.62-.568M130.184 430.236q.585-.109 1.651.523-.584.11-1.65-.523M196.999 487q.177.209.356.414c-.081-.05-.163-.099-.299-.282-.054-.134-.056-.132-.057-.131"/><path fill="#F3FDFD" d="M879.18 396.008s-.236.398-.52.831c-4.62 8.247-12.635 11.116-19.999 7.49-7.266-3.577-10.316-11.913-7.096-19.39 3.125-7.257 11.739-10.667 19.263-7.627 6.802 2.748 9.797 9.452 8.352 18.696"/><path fill="#287DAB" d="M879.56 395.904c1.065-9.14-1.93-15.844-8.732-18.592-7.524-3.04-16.138.37-19.263 7.626-3.22 7.478-.17 15.814 7.096 19.392 7.364 3.625 15.38.756 19.986-7.26.285 6.536-7.076 11.974-15.126 11.173-8.173-.813-13.826-6.91-15.403-16.613-.976-6.005 3.168-12.584 9.83-15.606 7.654-3.472 18.679-.556 22.016 7.014 1.569 3.56.08 8.466-.404 12.866"/><path fill="#027BC1" d="M388.98 531c0-31.156-.002-61.813-.001-92.47 0-7.37.004-7.347 7.237-7.562 10.452-.312 20.904-.948 31.355-.922 12.788.031 25.654-.14 38.331 1.218 7.665.821 15.952 2.957 22.313 7.055 8.559 5.514 17.971 11.633 19.919 23.079.827 4.861.182 10.006-.054 15.009-.336 7.117-2.582 13.504-7.92 18.527-1.377 1.296-2.535 2.988-4.142 3.848-5.442 2.916-9.223 8.436-16.011 9.37-4.547.626-6.378 5.41-3.687 9.167 2.965 4.139 6.586 7.806 9.891 11.704 4.965 5.856 9.873 11.76 14.863 17.594 2.551 2.981 5.226 5.857 7.848 8.777 3.045 3.391 6.093 6.78 9.83 10.937-2.244.339-3.444.673-4.645.677-11.663.041-23.327.13-34.987-.074-1.897-.034-5.314-1.27-5.41-2.216-.732-7.164-7.071-10.08-10.64-15.023-3.102-4.298-6.388-8.463-9.513-12.746-3.32-4.55-6.743-9.042-9.766-13.786-4.396-6.898-10.1-9.6-18.775-6.113v5.295c.002 13.163-.097 26.326.07 39.486.049 3.889-1.272 5.415-5.213 5.25-5.489-.23-11-.212-16.49 0-3.71.143-7.341-3.511-11.079-.204-1.102-1.796-3.1-3.563-3.158-5.392-.319-9.986-.16-19.988-.165-30.485m38.377-73.874c-.782 1.6-2.2 3.185-2.242 4.805-.223 8.8-.128 17.61-.1 26.415.014 4.185 2.28 5.977 6.555 5.584 4.598-.422 9.215-.826 13.825-.838 1.765-.004 3.86 2.026 5.242 1.538 5.867-2.073 11.78-4.284 17.188-7.315 6.29-3.526 3.081-10.219 3.863-15.523.478-3.239.088-6.605.088-10.346-.699-.322-2.197-.91-3.597-1.677-11.94-6.536-24.802-5.585-37.65-4.605-.54.041-1.002 1.089-1.905 1.898 0 0-.46.076-1.267.064"/><path fill="#FFF" d="M674.86 601.957c5.134 4.558 6.014 10.138 4.882 16.124-1.139 6.021-4.863 8.97-10.695 8.979-5.52.007-9.835-3.32-10.756-8.974-.528-3.238-.662-6.732-.037-9.927 1.394-7.123 8.794-9.857 16.607-6.202M606.96 606.003c.086-1.736.173-3.017.254-4.223 6.084-1.423 9.373-.316 9.801 3.268.384 3.211-.732 5.491-4.295 5.898-3.379.386-6.506.43-5.76-4.943"/><path fill="#027AC1" d="M739.053 456.491c-.07.35-.483.535-.707.568-.924 1.27-2.19 2.492-2.23 3.751-.203 6.487-.155 12.985-.072 19.477.065 5.052 3.488 7.927 8.597 7.736 11.275-.423 22.555-.715 33.834-1.053.998-.03 1.999.023 2.996-.01 8.839-.3 9.437-.303 9.418 8.45-.037 16.21 3.237 12.824-12.365 13.525-11.798.53-23.648.387-35.455-.023-5.29-.184-6.892 2.385-6.989 6.693a531 531 0 0 0-.01 23.474c.106 4.85 3.476 4.443 7.383 3.341a828 828 0 0 1 41.59.035c2.296 1.895 4.405 2.762 6.342-.387.763-.008 1.198-.012 1.842.23 1.051.393 1.894.538 2.978.864.442.74.642 1.299.843 1.859-.34 6.288-.564 12.587-1.131 18.855-.097 1.072-1.595 2.792-2.56 2.875-4.22.364-8.483.276-12.73.278-23.825.014-47.65.022-71.475-.011-3.33-.005-7.606.923-9.686-.757-1.6-1.292-.492-6.005-.493-9.197-.013-40.319-.008-80.638-.008-120.956v-5.132c4.262-.395 7.606-.964 10.953-.975 23.491-.078 46.983-.087 70.474.005 3.958.015 7.94.462 11.853 1.073 1.032.161 2.56 1.613 2.652 2.587.528 5.6.803 11.234.886 16.86.016 1.07-1.045 2.92-1.894 3.105-3.398.742-6.91 1.339-10.375 1.319-10.461-.062-20.984-1.195-31.35-.323-4.241.356-9.272-3.043-13.11 1.864"/><path fill="#2379AA" d="M797.298 544.802c-.45-.341-.651-.9-1.295-1.896-1.29-.575-2.137-.715-2.984-.854-.436.004-.871.008-2.071-.005a489 489 0 0 0-6.007.059c-13.646-.011-27.293-.022-41.399-.013-1.334-.152-2.21-.324-3.299-.752 18.806-.28 37.827-.302 57.292-.187.301 1.235.157 2.332-.237 3.648"/><path fill="#F3FDFD" d="M786.019 609.896c-2.664 1.198-5.156 2.04-7.648 2.883l-1.808-10.896c8.381-1.834 11.262.799 9.456 8.013"/><path fill="#CCF1FA" d="M657.063 456.916c-.062-.568.18-1.098.69-1.746.264.311.257.739.237 1.487-.216.313-.42.305-.927.26M580.146 507.102q.312-.089.873.6-.31.089-.873-.6M631.231 568.87c.255-.079.573.175 1.043.697-.225.057-.603-.153-1.043-.697"/><path fill="#D7F7FB" d="M627.149 564.104c.207-.043.476.167.798.636-.21.046-.473-.169-.798-.636"/><path fill="#CCF1FA" d="M626.186 563.065c.355-.109.618.087.934.53-.141.284-.335.321-.823.381-.264-.186-.234-.396-.111-.91M662.958 450.692c-.061-.483.198-1.016.748-1.648.051.467-.189 1.032-.748 1.648M659.28 453.936c-.19-.267-.025-.532.516-.761.15.26-.03.503-.517.761M660.317 452.952c-.213-.264-.073-.523.456-.72.148.256-.016.478-.456.72M661.896 451.793c-.1-.26.106-.574.576-.99.086.243-.093.59-.576.99"/><path fill="#F3FDFD" d="M428.165 457.138s.46-.076 1.122-.119c9.282.34 18 .052 26.494 1.3 7.85 1.153 12.734 7.599 13.18 14.882.421 6.862-4.017 12.755-11.707 15.539-9.336 3.38-18.943 2.18-29.09 2.134z"/><path fill="#2379AA" d="M427.761 457.132c.404 11.105.404 22.204.404 33.742 10.146.047 19.753 1.246 29.09-2.134 7.689-2.784 12.127-8.677 11.707-15.539-.447-7.283-5.332-13.73-13.181-14.882-8.493-1.248-17.212-.96-26.291-1.415.038-.651.5-1.699 1.04-1.74 12.848-.98 25.71-1.93 37.65 4.605 1.4.767 2.898 1.355 3.597 1.677 0 3.741.39 7.107-.088 10.346-.782 5.304 2.428 11.997-3.863 15.523-5.408 3.031-11.321 5.242-17.188 7.315-1.383.488-3.477-1.542-5.242-1.538-4.61.012-9.227.416-13.825.838-4.274.393-6.54-1.399-6.554-5.584-.03-8.806-.124-17.615.1-26.415.04-1.62 1.459-3.204 2.644-4.8"/><path fill="#3082AE" d="M785.044 542.455c1.645-.374 3.392-.4 5.577-.404-1.173 3.166-3.282 2.3-5.577.404M793.227 542.299q.96-.164 2.535.427-.96.163-2.535-.427"/></svg>